<svg version="1.1" id="Layer_1" xmlns="http://www.w3.org/2000/svg" xmlns:xlink="http://www.w3.org/1999/xlink" x="0px" y="0px" enable-background="new 0 0 1024 1024" xml:space="preserve" viewBox="219.8 213.73 587.2 580.67">
<path fill="#FFFFFF" opacity="1.000000" stroke="none" d=" M561.153564,559.861450   C549.486511,552.742004 538.091980,545.872253 526.784912,538.861694   C522.689636,536.322571 520.853333,532.667603 520.882812,527.574219   C521.057312,497.413666 520.875610,467.251068 521.036682,437.090363   C521.075378,429.844452 518.647095,423.428925 515.956970,416.979004   C515.434143,415.725372 514.913330,414.470520 513.267151,414.406769   C511.587463,414.341705 511.096466,415.585449 510.500183,416.828247   C507.302917,423.492004 505.122498,430.353546 505.139679,437.883759   C505.208130,467.878754 505.047760,497.874634 505.220703,527.868774   C505.253021,533.471375 502.884003,536.630249 498.256439,539.368591   C485.820923,546.727356 473.616272,554.477722 461.350220,562.121094   C440.327667,575.221069 419.329620,588.360291 398.318695,601.478882   C376.605652,615.035828 354.881042,628.574158 333.186920,642.161316   C330.779633,643.669067 328.339661,645.337952 329.647583,649.159302   C333.709961,650.237488 336.969879,647.476196 340.356140,646.312500   C352.437256,642.160645 364.256134,637.253113 376.245911,632.825623   C384.954468,629.609863 393.979004,627.173035 402.489319,623.519287   C410.713989,619.988159 419.159180,617.127319 427.511597,614.000122   C439.609009,609.470581 451.545258,604.520142 463.863525,600.548523   C472.365875,597.807190 480.596680,594.225708 488.959625,591.048157   C490.511963,590.458374 492.089844,589.897949 493.700104,589.505188   C500.716797,587.794250 505.153931,591.186279 505.164398,598.353943   C505.192902,617.850647 505.147583,637.347534 505.148102,656.844299   C505.148651,677.007385 505.211731,697.170654 505.159271,717.333557   C505.138214,725.424194 503.196930,727.022705 494.979065,727.237366   C483.695740,727.532166 473.109589,723.871460 462.199982,722.015930   C448.817444,719.739868 436.292236,714.838257 424.166168,709.356079   C406.290009,701.274353 389.473297,691.104614 374.405365,678.310852   C369.715393,674.328735 364.968018,670.458923 360.645630,666.028015   C355.385742,660.636047 346.815460,660.707275 337.839600,665.449219   C332.534515,668.251831 326.708282,669.733948 321.015961,671.411621   C316.796112,672.655273 310.773071,667.419373 310.730042,662.673340   C310.649841,653.826721 312.560822,645.165771 313.753357,636.441284   C314.118469,633.770325 316.297211,632.780029 318.346588,631.585266   C325.272858,627.547302 326.269073,623.783691 322.378082,616.801270   C311.387421,597.078735 303.897583,576.122192 298.805664,554.105347   C294.021851,533.420776 292.710571,512.540344 294.259949,491.603363   C295.282593,477.784271 298.195618,464.102600 301.799255,450.559906   C305.404602,437.010742 310.643768,424.210266 316.370270,411.562225   C321.447174,400.348907 328.262878,390.094330 335.380371,380.060303   C346.722229,364.070892 360.455292,350.316498 375.546692,337.963165   C392.879608,323.774963 412.046783,312.740448 432.943024,304.355988   C448.363495,298.168640 464.230316,293.709076 480.454468,291.623810   C497.488373,289.434448 514.648682,287.025177 532.146545,290.013702   C541.398315,291.593811 550.926331,292.226257 560.227234,293.944885   C568.194153,295.417023 575.874146,298.014343 583.585938,300.519470   C603.634521,307.031952 622.129028,316.648773 639.200073,328.814087   C657.395020,341.780304 673.750244,356.747009 687.194946,374.859253   C695.244507,385.703461 703.012207,396.722931 708.896729,408.793152   C713.735901,418.719025 718.046326,428.952820 721.564636,439.548035   C724.766296,449.190063 726.802979,459.066711 729.204346,468.845184   C731.292908,477.350037 732.129822,486.227051 732.829041,494.994659   C734.225159,512.501282 732.795227,529.994385 729.621765,547.155945   C727.842163,556.779419 725.162109,566.359558 721.949158,575.792725   C717.767395,588.070007 712.773499,599.891846 707.126343,611.498169   C706.112732,613.581421 704.727966,615.481689 703.669312,617.545898   C700.723694,623.289612 701.912170,628.450684 707.618896,631.424316   C711.805298,633.605835 712.948486,636.693481 713.426392,640.998962   C714.159668,647.604065 715.440613,654.137024 715.500793,660.828003   C715.572937,668.842834 710.338745,672.626099 702.527161,670.673889   C695.581177,668.937866 689.141235,665.939880 682.454041,663.576904   C675.218140,661.020081 669.560669,662.072632 664.244446,667.338806   C649.232727,682.209473 631.771179,693.636963 613.428711,703.951538   C600.166626,711.409119 585.851196,716.059509 571.477722,720.383484   C564.924622,722.354797 557.781738,723.205688 551.136902,724.878418   C544.528503,726.542053 538.121704,727.028748 531.524963,727.165100   C523.427185,727.332581 520.963562,725.035889 520.959595,716.929810   C520.943176,683.101990 521.036194,649.274231 521.085388,615.446411   C521.093384,609.947571 520.924988,604.443176 521.118408,598.951233   C521.402039,590.899475 525.632202,587.479126 533.234558,589.847290   C542.228333,592.648865 550.976929,596.237915 559.830872,599.488037   C571.339844,603.712585 582.928040,607.736206 594.330994,612.229858   C603.406616,615.806396 612.663879,618.873474 621.703369,622.584290   C629.787537,625.902832 638.175110,628.587952 646.354980,631.762817   C652.981750,634.334839 659.716370,636.630554 666.329346,639.236084   C675.269714,642.758545 684.663025,645.026917 693.401672,649.101746   C694.473206,649.601318 695.772156,649.872742 696.511169,648.580688   C697.263672,647.265198 696.884216,645.819763 695.810059,644.938782   C693.509277,643.051758 691.125427,641.232117 688.612122,639.643555   C666.000183,625.351685 643.539001,610.808411 620.659607,596.956665   C600.762268,584.910278 580.946716,572.752686 561.153564,559.861450  M390.931122,365.607941   C394.756409,359.552917 398.895721,353.957733 404.780884,349.470276   C424.216278,334.650879 447.309174,337.543701 464.184357,353.354156   C466.429108,355.457306 467.835815,355.670044 470.599579,354.413940   C490.962738,345.159180 511.873138,350.221924 525.535889,366.770691   C529.656006,371.761139 529.315735,376.889648 525.093994,380.452942   C521.440430,383.536652 517.804565,382.625092 513.179260,377.465729   C502.476776,365.527527 488.050323,363.003540 474.500122,371.171448   C464.583496,377.149048 464.001740,378.556061 454.291016,367.665863   C453.626648,366.920807 453.087036,366.058075 452.385345,365.353729   C445.444733,358.386902 432.760040,354.983398 422.852203,358.414520   C410.826691,362.579041 402.920471,373.332214 402.936035,387.568420   C402.944733,395.539154 396.854279,399.873260 389.930756,396.519958   C387.074158,395.136353 384.104706,394.213409 381.239014,392.959290   C368.278961,387.287476 347.434479,394.712280 339.900238,405.078461   C329.057892,419.996094 322.781433,437.033020 317.753448,454.353180   C312.802979,471.406342 310.793060,489.049957 310.862976,507.047699   C310.934662,525.504150 313.048492,543.497253 317.402191,561.335938   C318.758453,566.893311 322.157501,568.413391 326.369080,564.808167   C340.772736,552.478394 357.348267,549.381775 375.485626,553.054077   C378.545776,553.673706 379.802490,552.682861 380.653381,550.077698   C383.720398,540.687500 388.694153,532.722168 396.850281,526.733704   C409.760376,517.254761 423.850586,515.238831 438.887878,519.700317   C448.600342,522.581970 456.112915,528.924683 462.237823,536.870728   C464.218292,539.440063 466.090485,540.157471 468.923706,538.080811   C472.945923,535.132690 476.890656,531.875366 481.351776,529.778198   C487.694824,526.796387 488.023407,521.896851 488.102539,515.914368   C488.502960,485.631592 485.971558,455.285095 489.820618,425.074066   C491.053314,415.398743 494.647827,406.805603 502.072113,400.155060   C506.732513,395.980347 514.840515,394.344513 519.233704,396.977539   C526.309509,401.218323 531.299194,407.305664 534.081116,415.115936   C537.836426,425.659058 537.936829,436.671021 538.082886,447.653748   C538.155029,453.080231 538.845398,453.575439 543.979248,451.785339   C554.679382,448.054352 565.426636,447.700073 576.024231,452.147095   C580.767029,454.137299 584.960266,455.037231 588.685181,450.115967   C590.240967,448.060577 592.497498,446.074127 594.861328,445.170013   C606.371521,440.767731 617.624451,437.011353 630.611084,441.174225   C646.486511,446.263184 656.329834,456.600769 661.776550,471.539764   C663.337219,475.820251 665.220337,476.372833 668.647339,475.123474   C671.622437,474.038879 674.480896,472.960449 677.756287,472.814087   C687.866760,472.362305 697.060364,475.440338 705.994507,479.640747   C707.697510,480.441376 709.329590,481.506287 711.117981,480.345306   C712.962402,479.147858 712.489197,477.211945 712.335815,475.351654   C711.910950,470.198059 710.481995,465.272766 709.401245,460.250275   C706.483337,446.691223 701.545959,433.854675 695.616943,421.472870   C687.918396,405.395691 678.177185,390.592163 666.664307,376.821808   C652.268311,359.603058 635.222290,345.726959 616.157288,334.295685   C595.667725,322.010254 573.311951,314.266663 549.976379,309.438446   C528.275085,304.948334 506.457336,304.643921 484.527679,308.034027   C478.592194,308.951599 472.879059,310.652679 467.012482,311.755524   C453.923553,314.216003 441.589569,319.032623 429.408783,324.211243   C414.180115,330.685760 400.424500,339.694305 387.322083,349.690887   C380.580994,354.834015 374.210480,360.485657 368.735168,366.980804   C365.229004,371.140015 366.156372,372.977295 371.398590,373.782471   C374.022766,374.185516 376.635925,374.721558 379.211182,375.368317   C383.645782,376.482056 387.780853,377.384918 388.596130,370.829163   C388.791534,369.258209 389.937073,367.805450 390.931122,365.607941  M644.230713,473.327820   C639.753235,462.124237 630.738525,457.111053 619.410095,456.439880   C608.627502,455.801086 599.707397,460.035309 593.347168,469.185699   C588.735596,475.820374 584.931091,476.481567 578.254395,472.328339   C577.266479,471.713837 576.188538,471.235901 575.235291,470.574951   C567.117798,464.946289 558.380493,463.432007 549.288269,467.536438   C544.443054,469.723755 537.576477,471.532593 537.773132,477.952576   C538.227112,492.775940 537.752075,507.585632 538.047546,522.396240   C538.085754,524.308533 538.557190,525.876465 540.423767,526.988770   C543.558655,528.856812 546.484680,531.071899 549.585205,533.001770   C569.876648,545.631836 590.202209,558.206970 610.495361,570.834229   C631.914856,584.162292 653.295044,597.553528 674.726440,610.862366   C680.844421,614.661621 686.147583,613.230530 689.854004,607.122559   C695.120300,598.444031 698.475586,588.868469 702.607971,579.672241   C705.299744,573.682190 707.343323,567.261353 708.647034,560.824890   C710.052734,553.884583 711.343201,546.843750 712.836365,539.964539   C714.672180,531.506836 714.638916,523.136169 715.027588,514.692017   C715.122314,512.633667 714.258301,510.858551 713.223083,509.083374   C702.686157,491.015198 679.595459,486.257294 661.158630,494.891052   C653.067627,498.679962 647.367249,495.583374 646.971680,486.647186   C646.779602,482.307983 646.678101,477.982239 644.230713,473.327820  M377.233612,653.937988   C376.440857,657.578125 378.468414,659.934509 380.949402,662.076416   C394.576233,673.841309 409.587158,683.580200 425.778290,691.319641   C443.039001,699.570374 461.470490,704.469421 480.131470,708.427612   C484.260742,709.303467 487.656189,706.381042 487.679230,702.007812   C487.823975,674.545593 487.895538,647.082825 487.911835,619.620239   C487.914520,615.108582 485.542114,613.113220 481.030823,612.928040   C477.505005,612.783264 474.713257,614.626221 471.623718,615.781677   C454.786469,622.078674 437.902802,628.251953 421.023071,634.434937   C409.235413,638.752808 397.395874,642.931702 385.651855,647.364197   C382.481354,648.560791 378.930359,649.548584 377.233612,653.937988  M619.983398,680.499573   C621.786865,679.312073 623.621521,678.169128 625.388184,676.929199   C632.875793,671.674622 640.276978,666.280396 646.672180,659.708313   C650.469116,655.806396 649.640991,652.379089 644.883667,649.827454   C642.232727,648.405579 639.369690,647.645935 636.591675,646.604980   C622.842285,641.453064 609.305176,635.728333 595.517883,630.685120   C580.484497,625.186218 565.281555,620.165283 550.625488,613.661194   C543.720581,610.596863 537.827026,613.293274 537.895569,619.270935   C538.208252,646.535889 538.550903,673.800598 538.917725,701.064941   C539.000549,707.213562 541.891968,709.685181 547.829346,708.341614   C555.575989,706.588562 563.371094,704.887634 570.923584,702.471313   C587.840881,697.058960 604.192749,690.265686 619.983398,680.499573  M393.654266,569.629456   C388.590790,576.163818 388.378357,576.333557 381.118591,572.921082   C376.891998,570.934387 372.593353,568.814209 368.052917,568.314514   C352.914642,566.648560 340.412415,571.839661 330.764404,583.804565   C327.997101,587.236450 327.692932,590.670715 329.631897,594.443359   C332.211151,599.461975 334.824432,604.463318 337.459412,609.452881   C339.161774,612.676453 341.973724,613.736572 345.408844,613.121155   C347.874420,612.679504 350.148163,611.674377 352.306305,610.333801   C368.248901,600.430847 384.222870,590.578430 400.184692,580.706482   C415.723175,571.096375 431.246002,561.460938 446.807709,551.888611   C449.661285,550.133362 450.482727,548.394531 447.956848,545.590576   C440.148743,536.922974 431.017792,531.207703 418.948578,534.373596   C406.735657,537.577148 397.885254,544.677551 395.787170,558.079468   C395.221558,561.692322 394.563660,565.290649 393.654266,569.629456  z"/>
<path fill="#FFFFFF" opacity="1.000000" stroke="none" d=" M740.903442,352.080414   C734.721802,343.789337 728.881714,335.690643 722.363647,328.104614   C719.267212,324.500824 719.519775,319.590027 722.625549,316.867798   C726.848816,313.165985 731.018982,313.160309 734.880554,317.508148   C739.514587,322.725800 743.924622,328.171356 748.085571,333.775238   C765.217651,356.848145 779.050964,381.839508 788.655701,408.875031   C794.459961,425.213104 799.113403,441.978973 801.752563,459.314514   C804.714783,478.771942 807.743042,498.184265 806.808533,517.885620   C806.195984,530.800110 804.463196,543.639771 801.771240,556.361145   C800.407349,562.806885 800.227783,569.449402 798.489319,575.950195   C795.495117,587.146851 792.505737,598.362122 788.521423,609.209839   C781.480042,628.380981 772.595642,646.733398 761.522766,663.952637   C753.614807,676.250122 745.712830,688.573181 735.455688,699.120361   C731.327759,703.365112 725.530334,702.850769 722.109497,698.194763   C719.873474,695.151428 719.526245,692.058594 722.135864,689.080139   C725.298279,685.470703 728.195801,681.603943 731.087402,677.830200   C746.213318,658.089661 758.669006,636.735779 768.295288,613.741272   C772.589233,603.484131 776.520020,593.041199 779.176086,582.332581   C783.805847,563.666626 788.474243,544.903137 788.714478,525.467407   C788.840088,515.303772 788.515869,505.128479 788.872986,494.975220   C789.352356,481.346466 786.333618,468.243927 783.974365,454.980865   C781.229675,439.551178 776.690918,424.648773 771.296631,410.051422   C765.887695,395.414398 758.976440,381.387512 750.869568,367.991882   C747.689453,362.737122 744.885620,357.252380 740.903442,352.080414  z"/>
<path fill="#FFFFFF" opacity="1.000000" stroke="none" d=" M300.935455,330.882202   C293.920197,341.234497 285.607727,350.233490 279.593933,360.837402   C271.755188,374.659149 263.883331,388.448425 257.904633,403.256012   C252.497040,416.649109 247.482376,430.212585 244.435242,444.269135   C241.561035,457.527954 237.783478,470.785431 238.069672,484.543640   C238.315613,496.366211 237.417679,508.148560 237.627960,519.989380   C237.976410,539.611511 241.102814,558.639099 245.846375,577.595581   C252.061523,602.432678 261.506561,625.866333 274.607483,647.824158   C282.786774,661.532959 291.920868,674.581299 302.074310,686.927429   C304.130493,689.427612 307.089996,691.952637 304.966553,696.185059   C300.815247,704.459106 295.905945,705.231628 289.843506,698.145935   C269.662842,674.558838 254.392685,648.070374 242.297852,619.512817   C235.391144,603.205200 229.852585,586.413879 226.601532,569.245544   C220.748260,538.335266 217.107147,507.138672 222.336212,475.485199   C224.471451,462.559845 226.049881,449.517059 229.144745,436.793091   C233.218384,420.045135 238.675110,403.669830 246.031799,388.063110   C257.768250,363.164917 271.884094,339.724609 290.165405,318.967896   C292.405029,316.424988 294.960175,314.534729 298.355713,315.411774   C301.833801,316.310150 303.776886,319.192871 304.862457,322.476257   C306.099457,326.217682 303.232727,328.268005 300.935455,330.882202  z"/>
<path fill="#FFFFFF" opacity="1.000000" stroke="none" d=" M573.934326,789.239319   C570.164978,789.823364 568.806274,787.866699 567.716553,785.096252   C564.131714,775.982056 560.382629,766.932434 556.146851,756.504395   C554.325928,767.445862 552.745667,777.053467 551.118286,786.653076   C550.607117,789.668457 550.147034,792.591736 545.806458,792.369995   C543.139221,792.233765 541.516663,791.575256 540.574951,788.882446   C535.737732,775.050476 530.745422,761.272827 525.836853,747.465698   C525.221252,745.733887 524.400940,743.554260 527.136841,743.089478   C529.927124,742.615662 533.212158,741.493835 534.585754,745.724060   C537.104187,753.479980 539.749817,761.194580 542.356323,768.921814   C542.974365,770.753967 543.197876,772.767395 545.188110,774.881653   C546.769226,765.001465 548.257385,755.692627 549.749695,746.384460   C550.060852,744.443420 549.914673,742.287170 551.743530,740.953369   C554.749451,738.761169 558.026306,739.934692 559.547974,743.755310   C563.236755,753.017334 566.881958,762.296692 570.963989,772.630371   C572.967102,765.308289 572.850098,758.854614 573.706665,752.548401   C574.087036,749.747925 574.218506,746.913452 574.605591,744.114136   C575.516235,737.527832 576.560181,736.838013 583.981384,738.144592   C583.032959,746.299255 582.117676,754.502380 581.114319,762.694763   C580.223938,769.964111 579.176514,777.214539 578.322510,784.487854   C578.022461,787.043457 577.458252,789.117615 573.934326,789.239319  z"/>
<path fill="#FFFFFF" opacity="1.000000" stroke="none" d=" M573.274780,246.341888   C575.080383,240.736343 576.561829,235.433228 578.483826,230.294922   C579.367188,227.933411 578.703369,223.804153 582.767517,224.037766   C586.719055,224.264923 589.814697,225.850723 590.688599,230.733490   C592.181580,239.075089 594.385742,247.292389 596.391174,255.537567   C597.046326,258.231110 597.151733,261.115112 598.958496,263.910797   C600.772400,261.790710 601.157654,259.318481 601.927063,257.045990   C604.170044,250.421875 606.547852,243.835434 608.514404,237.129135   C609.469299,233.872925 610.743835,232.795013 614.163086,233.893799   C617.676392,235.022827 618.448730,236.685638 617.247498,240.162781   C612.898621,252.751755 608.820374,265.433990 604.555908,278.052582   C603.870117,280.081665 603.978699,283.336304 600.632324,282.824921   C597.359863,282.324829 594.285400,281.308746 593.432312,277.090546   C591.749573,268.770020 589.653809,260.532776 587.711182,252.265244   C586.952148,249.034729 586.145752,245.815353 585.219788,242.011337   C583.361023,243.698013 583.041077,245.649277 582.467468,247.390060   C580.018372,254.822739 577.524536,262.244720 575.302917,269.746399   C574.323547,273.053284 572.914795,273.969543 569.526428,272.745575   C566.506653,271.654785 565.013977,270.691925 566.361023,267.087402   C568.864624,260.387787 570.900208,253.513321 573.274780,246.341888  z"/>
<path fill="#FFFFFF" opacity="1.000000" stroke="none" d=" M486.428589,779.989929   C486.497955,775.304749 488.363098,771.824158 491.766968,769.378235   C494.927460,767.107239 495.261047,765.050598 493.196472,761.609131   C490.137878,756.510620 490.936951,749.887451 494.258698,746.186829   C498.010437,742.007080 504.214752,740.720215 509.843170,742.954346   C517.716370,746.079529 519.711487,755.525696 513.992493,761.851990   C512.163086,763.875671 508.799957,764.588074 508.492828,767.871399   C508.350372,769.394104 514.156860,775.609985 516.906921,777.224731   C518.722778,775.919495 518.758911,773.803528 519.153564,771.914490   C519.744324,769.086487 521.645325,768.684753 524.019775,768.983582   C526.725525,769.324158 527.126465,771.149841 526.656677,773.359436   C526.208679,775.466553 526.077881,777.853394 524.960815,779.564453   C522.097900,783.949707 522.686707,787.495850 526.504639,790.816833   C527.116211,791.348816 527.535217,792.129822 527.000366,793.499207   C524.401306,794.730774 521.067749,794.736084 518.786316,793.185303   C515.320801,790.829407 512.548706,792.283508 509.435150,793.229187   C497.917999,796.727356 488.185150,791.270142 486.428589,779.989929  M495.935913,778.119507   C495.425934,781.667908 496.727325,784.348389 499.995148,785.814697   C503.421448,787.352051 506.638947,786.963684 509.450012,784.353638   C507.408142,780.004700 503.560913,775.249084 500.024353,772.696533   C498.122528,773.728760 496.723175,775.234436 495.935913,778.119507  M502.087128,759.997498   C504.905792,761.181458 506.402039,759.075928 507.912384,757.452209   C509.305908,755.954163 510.216278,754.056091 508.700653,752.076660   C507.462372,750.459473 505.995087,749.103333 503.650177,749.942200   C501.341400,750.768188 500.247467,752.400818 500.221313,754.840820   C500.203003,756.551270 500.568970,758.119812 502.087128,759.997498  z"/>
<path fill="#FFFFFF" opacity="1.000000" stroke="none" d=" M407.696472,738.817566   C410.352966,726.963745 408.967499,728.719666 419.381378,730.928406   C422.626648,731.616760 425.822937,732.542419 429.030487,733.401123   C435.621704,735.165894 441.217682,738.062805 442.482269,745.659058   C443.684875,752.882996 440.432251,757.779846 433.455139,761.214417   C441.534851,768.831421 434.177826,777.508484 436.010468,785.558228   C428.822815,787.218445 425.990387,784.835327 426.948395,778.036011   C427.017883,777.542786 427.127441,777.054749 427.230255,776.566772   C430.102692,762.933044 424.692108,763.042542 414.307220,760.846802   C412.267761,760.415527 411.711517,761.836731 411.339325,763.375977   C410.597595,766.443237 410.203613,769.639343 409.080566,772.556824   C407.990540,775.388550 409.698700,780.671570 403.206818,779.432190   C396.672333,778.184753 399.330658,774.088867 400.100067,770.720276   C402.503113,760.199402 405.116455,749.726501 407.696472,738.817566  M414.973053,748.201050   C413.704773,751.741943 414.952423,753.565186 418.696838,753.921692   C421.174316,754.157532 423.616364,754.829895 426.094238,754.982361   C429.467041,755.189880 432.003754,753.740417 432.744080,750.252014   C433.529358,746.551453 433.065857,743.071411 429.039062,741.482422   C426.432648,740.453796 423.627289,739.885437 420.872375,739.289856   C418.269226,738.727173 416.759857,739.984985 416.234802,742.552795   C415.901337,744.183594 415.495972,745.799683 414.973053,748.201050  z"/>
<path fill="#FFFFFF" opacity="1.000000" stroke="none" d=" M485.906433,228.590012   C486.988556,234.090988 484.779816,237.993805 480.667023,241.571045   C491.696991,245.565002 487.653931,256.788513 492.568939,263.560425   C486.063080,267.631104 482.955414,266.519714 481.316681,259.761017   C481.159973,259.114685 480.929047,258.477509 480.851990,257.822052   C479.775360,248.665497 478.096588,245.499130 465.426178,247.682343   C461.658997,248.331451 460.839233,250.242279 461.399719,253.535675   C462.011963,257.133362 462.504639,260.751556 463.129913,264.346802   C463.739716,267.852997 462.040497,269.057587 458.791016,269.445099   C455.693298,269.814453 454.183807,268.998413 453.760315,265.713745   C451.976654,251.877792 450.011810,238.065201 448.133026,224.241379   C447.885193,222.417938 447.481079,220.200150 449.993958,219.803055   C457.821106,218.566193 465.559845,216.184097 473.616730,217.306503   C480.041046,218.201477 484.174377,221.839737 485.906433,228.590012  M476.810242,232.446640   C476.815063,228.727921 475.350372,225.873779 471.594177,224.926392   C467.265717,223.834656 463.085480,224.961227 459.099945,226.665817   C458.600433,226.879456 458.398499,228.092438 458.291565,228.874237   C457.004486,238.282974 460.350281,241.506180 469.480743,239.473450   C472.902893,238.711578 476.426636,237.742218 476.810242,232.446640  z"/>
<path fill="#FFFFFF" opacity="1.000000" stroke="none" d=" M699.105164,729.289062   C698.143799,727.787170 697.023010,727.698914 695.868469,728.252258   C691.071533,730.551453 686.303528,732.911072 681.517517,735.233337   C679.285706,736.316406 679.487915,737.877747 680.428284,739.775879   C682.495667,743.949036 684.322144,748.246704 686.510132,752.353271   C688.345276,755.797485 685.973328,756.621460 683.701721,757.858643   C681.223816,759.208130 679.630371,759.200134 678.213623,756.251648   C672.016479,743.355042 665.711243,730.507751 659.230591,717.751648   C657.223633,713.801208 659.938782,712.910645 662.355652,711.417725   C665.131226,709.703308 666.454041,710.818115 667.661438,713.445435   C670.075317,718.698059 672.747131,723.832031 675.532104,729.458618   C681.133789,726.725647 686.332825,724.181519 691.539246,721.652344   C693.847717,720.530884 694.077454,718.880371 692.997131,716.713867   C690.918457,712.545044 689.094421,708.240356 686.847717,704.166870   C684.805603,700.464294 687.509949,699.676025 689.793213,698.248901   C692.502380,696.555603 693.901367,697.421082 695.174072,700.071350   C701.367615,712.968994 707.572510,725.863586 714.003662,738.643311   C715.921814,742.454956 713.315002,743.121826 711.017212,744.481079   C708.324829,746.073608 706.844849,745.311584 705.622681,742.576782   C703.655823,738.175476 701.417969,733.895264 699.105164,729.289062  z"/>
<path fill="#FFFFFF" opacity="1.000000" stroke="none" d=" M633.299927,267.278564   C631.197876,271.094757 629.039246,274.486755 627.913269,278.363861   C625.695984,285.998932 631.689697,293.857208 639.646973,293.954376   C644.187744,294.009796 644.733032,290.219360 646.066772,287.385284   C647.397034,284.558472 644.488098,284.133575 642.931274,283.298859   C640.434082,281.959900 638.723267,280.739838 640.579346,277.556396   C642.426941,274.387634 644.390991,275.945404 646.439270,277.020233   C658.970703,283.595886 658.969116,283.598846 652.354614,295.652740   C649.105652,301.573486 646.082214,303.338715 639.364258,302.060638   C623.901001,299.118896 612.596069,285.898865 621.972534,268.798981   C624.130859,264.862854 626.332336,260.910797 628.935059,257.266785   C633.291138,251.167801 641.636536,248.087601 648.424133,250.230637   C656.572449,252.803329 663.211975,257.283447 664.951782,266.464447   C665.250610,268.041168 665.068848,269.816254 664.671570,271.389252   C664.218384,273.183746 664.000977,276.062683 661.221985,275.215057   C658.896973,274.505829 656.008667,273.739594 655.640564,270.321686   C654.690857,261.503571 653.234558,259.379730 647.555054,258.126709   C642.250427,256.956390 637.483704,259.942993 633.299927,267.278564  z"/>
<path fill="#FFFFFF" opacity="1.000000" stroke="none" d=" M453.334961,785.968872   C451.894440,790.875671 448.592285,788.193054 446.197113,788.060181   C443.848022,787.929749 444.339844,785.788879 444.543030,784.128784   C446.260773,770.096069 448.102844,756.076599 449.609283,742.021179   C450.060608,737.810059 452.430206,737.830994 455.496490,738.102783   C459.098694,738.422058 459.145660,740.482300 458.634094,743.384033   C457.942627,747.306458 457.640808,751.304138 457.313904,755.281128   C457.185516,756.842712 456.611877,758.811646 458.789337,759.545471   C460.627869,760.165100 461.961731,759.064819 463.154785,757.807922   C467.167511,753.580688 471.389099,749.530518 475.144501,745.086182   C479.010864,740.510559 483.384399,741.463196 489.385773,742.902893   C485.539642,746.909058 482.431213,750.241455 479.221252,753.473022   C468.396790,764.370117 468.411041,764.340027 476.284149,777.785889   C478.949158,782.337158 481.432770,786.994629 484.074310,791.738342   C476.683777,793.485718 474.226776,792.454895 471.068024,786.756104   C468.242767,781.658875 465.325378,776.612183 462.549774,771.488403   C461.417633,769.398499 460.018372,767.920166 457.475433,768.331238   C454.881500,768.750610 455.434204,770.997925 455.182190,772.697205   C454.547516,776.976746 453.985809,781.267029 453.334961,785.968872  z"/>
<path fill="#FFFFFF" opacity="1.000000" stroke="none" d=" M531.122925,215.787994   C534.439514,214.527649 537.255554,215.650818 540.809998,216.160538   C538.684875,220.890854 535.102844,223.965073 532.180420,227.397263   C522.530029,238.731003 522.429504,238.638107 530.832581,251.025909   C533.949097,255.620270 537.037354,260.233795 540.257263,265.014984   C532.979980,267.303680 530.678345,266.610931 527.291931,261.549866   C523.963440,256.575378 520.673950,251.574692 517.340149,246.603775   C516.116882,244.779816 514.811218,242.895538 512.191589,243.463226   C509.339172,244.081329 510.234924,246.578583 510.060516,248.384567   C509.677521,252.349884 509.424286,256.333466 509.292847,260.315399   C509.202423,263.055878 508.517761,264.807220 505.245483,264.473511   C502.495453,264.193085 499.804749,264.299835 500.008514,260.271881   C500.722382,246.160110 501.361420,232.044357 501.968018,217.927521   C502.106323,214.709488 503.710846,213.644852 506.783203,213.748123   C509.822083,213.850281 511.523956,214.900696 511.295349,218.188065   C510.995575,222.497757 510.715363,226.809860 510.518982,231.125122   C510.453674,232.560562 510.071747,234.242722 511.795074,235.106339   C513.705688,236.063812 514.950989,234.890808 516.063232,233.570724   C520.990051,227.723465 525.898743,221.860931 531.122925,215.787994  z"/>
<path fill="#FFFFFF" opacity="1.000000" stroke="none" d=" M658.413818,728.082031   C655.013916,731.176880 652.045593,732.375793 648.192383,728.498596   C644.356140,724.638489 636.131897,726.736694 633.563782,731.589722   C631.521606,735.448669 633.581726,739.321228 638.297180,739.739807   C642.760315,740.135925 647.288696,739.744080 651.767273,740.030090   C660.235779,740.570862 665.071533,744.030090 667.196533,750.464783   C668.453491,754.271057 667.763184,757.720581 665.605652,760.899048   C660.182434,768.888611 646.677979,772.798645 637.822937,769.025574   C635.960266,768.231873 634.167175,767.217957 633.034546,765.541565   C631.916443,763.886780 629.510193,761.873230 631.971802,759.992920   C634.185303,758.301941 636.857910,756.505371 639.888000,759.637207   C644.472961,764.376099 652.936035,763.605469 656.998108,758.388123   C658.271729,756.752319 659.143311,754.975098 658.116760,752.854126   C656.758911,750.048706 654.448547,748.515747 651.402100,748.405823   C646.744019,748.237915 642.060120,748.545898 637.418396,748.214722   C625.852905,747.389587 619.767883,736.655518 625.715759,727.839905   C630.094910,721.349426 640.683899,717.197937 648.271667,719.146790   C652.987732,720.358032 656.895325,722.689819 658.413818,728.082031  z"/>
<path fill="#FFFFFF" opacity="1.000000" stroke="none" d=" M338.218445,734.176086   C335.685516,732.962708 334.917908,734.547546 334.164734,736.089783   C332.486023,739.527161 330.692596,742.918091 329.211914,746.439819   C327.931854,749.484436 326.116028,749.348816 323.687775,748.011780   C321.473785,746.792664 319.068817,746.075745 320.785706,742.518372   C327.072784,729.491760 333.168091,716.372437 339.294434,703.268738   C340.145691,701.447998 341.003265,699.834778 343.348419,701.116882   C350.195221,704.860168 357.949524,706.952637 364.066284,711.970215   C368.527679,715.629822 371.256073,720.454224 369.749390,726.457397   C368.115997,732.965393 364.553833,737.982910 357.439270,739.422363   C353.901978,740.138062 350.477509,739.488281 347.200012,738.162231   C344.272766,736.977783 341.425507,735.595581 338.218445,734.176086  M353.294830,731.612915   C357.725403,730.939453 359.848816,727.976929 360.593475,723.909119   C361.145538,720.893494 360.151733,718.198242 357.468079,716.598694   C353.947998,714.500671 350.385895,712.388000 346.134888,711.395447   C345.436523,712.523682 344.751251,713.438232 344.263275,714.448242   C338.188110,727.021606 338.705505,728.082092 353.294830,731.612915  z"/>
<path fill="#FFFFFF" opacity="1.000000" stroke="none" d=" M614.744019,749.277832   C620.282410,758.132385 626.577759,766.101013 631.107178,775.160034   C624.644165,778.887390 623.299011,778.821228 620.020081,773.030273   C617.610291,768.774414 614.793640,767.407471 610.288696,769.278137   C608.922546,769.845398 607.410522,770.183044 605.934692,770.342834   C600.624939,770.917908 597.379395,773.052979 597.678894,779.135193   C597.967896,785.004517 593.760864,785.605530 588.899353,785.414978   C587.747314,780.601440 589.433472,775.929932 589.856628,771.268616   C590.893921,759.844177 592.595886,748.480896 593.684448,737.059998   C594.032043,733.412598 596.033081,732.477905 598.956238,731.562012   C602.054565,730.591187 603.525269,731.952698 605.001465,734.323730   C608.081177,739.270447 611.355408,744.096130 614.744019,749.277832  M600.359192,749.316467   C600.621094,753.877808 598.616333,758.380737 599.826477,763.238464   C603.897827,762.697876 607.716797,762.174805 611.621582,759.823303   C608.145386,754.914734 605.868652,749.615051 601.807678,745.204041   C600.666565,746.321838 600.495972,747.429138 600.359192,749.316467  z"/>
<path fill="#FFFFFF" opacity="1.000000" stroke="none" d=" M441.366760,260.649048   C443.777161,263.803314 445.959320,266.683777 448.128326,269.546875   C442.073853,274.291992 440.538330,274.293823 436.696289,268.611725   C434.145752,264.839600 431.470123,263.331360 427.184265,265.537720   C425.721405,266.290802 424.079498,266.817352 422.458282,267.119690   C416.871155,268.161804 413.938477,270.940186 414.976837,277.064056   C415.328674,279.139069 415.073608,281.528564 412.557526,282.566162   C410.891876,283.253021 409.119568,284.505798 407.363373,283.705811   C405.303467,282.767548 405.944336,280.502808 406.005249,278.768341   C406.519562,264.124939 407.186554,249.486603 407.639008,234.841522   C407.731812,231.838470 408.937500,230.394348 411.713623,229.470367   C414.505646,228.541092 416.387848,229.022980 418.209503,231.360474   C425.786743,241.083298 433.484833,250.711990 441.366760,260.649048  M415.271179,258.620270   C415.454559,259.711884 416.072937,260.709900 417.179321,260.414825   C420.555664,259.514343 424.243500,259.282623 427.188446,256.560730   C423.563599,251.495956 420.323608,246.482574 415.197906,241.326538   C415.197906,247.659164 415.197906,252.728394 415.271179,258.620270  z"/>
<path fill="#FFFFFF" opacity="1.000000" stroke="none" d=" M392.753601,722.861938   C393.078430,735.036804 393.167938,746.828247 393.332947,758.618530   C393.386383,762.434814 393.703003,766.247070 393.771027,770.063477   C393.804504,771.941895 394.491608,774.778870 391.777344,774.880249   C389.132660,774.979004 386.068817,774.336121 384.954254,771.045349   C384.799347,770.588013 384.892609,770.052490 384.814178,769.562317   C384.330566,766.540894 386.392731,762.315002 383.471405,760.680237   C378.766541,758.047241 373.387299,756.415222 368.108459,755.101990   C365.638794,754.487549 364.557983,757.673401 363.159393,759.430603   C359.201721,764.402710 357.823273,764.589600 351.493652,760.192810   C355.849213,754.809021 360.158936,749.429382 364.526276,744.096863   C370.000122,737.413391 375.547852,730.790283 381.013672,724.100159   C385.403290,718.727234 386.178619,718.585999 392.753601,722.861938  M384.561401,750.437195   C385.103577,744.757996 385.307007,739.083740 384.354523,733.218262   C380.484711,738.001404 375.987366,742.081543 373.007202,747.796753   C376.935547,749.594238 380.127319,751.591675 384.561401,750.437195  z"/>
<path fill="#FFFFFF" opacity="1.000000" stroke="none" d=" M379.833374,244.690369   C387.840271,245.602676 392.254761,250.149567 394.006470,257.251373   C395.661560,263.961517 392.809784,269.654785 386.007721,274.035889   C383.355164,275.744385 380.583801,277.280853 377.795990,278.762878   C375.570160,279.946136 375.114410,281.405579 376.347961,283.625488   C378.286499,287.114014 379.974030,290.744415 381.970551,294.197540   C383.585449,296.990662 381.961029,298.083801 379.844330,299.147980   C377.782013,300.184845 375.700378,301.899170 373.992249,298.684967   C367.045441,285.613037 360.095093,272.542999 353.162231,259.463654   C352.375549,257.979462 352.292175,256.466888 353.997589,255.595261   C362.219910,251.392776 369.587158,245.181824 379.833374,244.690369  M364.761108,262.127350   C366.930237,265.788147 368.455811,269.842377 371.516144,273.519135   C374.820068,271.730835 378.102905,270.183655 381.146393,268.258209   C387.242035,264.401825 386.813568,256.913879 380.420563,253.493820   C376.859222,251.588623 365.381714,255.833527 363.994354,259.646637   C363.808350,260.157898 364.270447,260.904968 364.761108,262.127350  z"/>
<path fill="#FFFFFF" opacity="1.000000" stroke="none" d=" M558.048340,252.870514   C557.167542,257.525543 556.282227,261.743011 555.560120,265.988251   C555.013000,269.204468 553.100891,269.470978 550.462463,268.752991   C548.015076,268.086975 545.704895,267.890137 546.457397,264.039825   C549.158203,250.220306 551.647827,236.355621 553.937073,222.461838   C554.670898,218.008255 557.361145,218.392334 560.459412,218.786194   C564.007812,219.237274 563.417664,221.644180 563.008179,224.012360   C561.369812,233.488678 559.744324,242.967194 558.048340,252.870514  z"/>
</svg>